<svg width="52" height="52" viewBox="0 0 52 52" fill="none" xmlns="http://www.w3.org/2000/svg">
<g filter="url(#filter0_d_623_2120)">
<rect x="4" y="2" width="44" height="44" rx="22" fill="white" shape-rendering="crispEdges"/>
<path d="M34.0898 26.9819L30.3232 23.2236C30.402 22.8397 30.4411 22.4488 30.4398 22.0569C30.4395 20.9825 30.1684 19.9254 29.6515 18.9835C29.1345 18.0416 28.3885 17.2452 27.4823 16.6679C26.5761 16.0906 25.5389 15.7511 24.4668 15.6807C23.3946 15.6103 22.3221 15.8114 21.3482 16.2653C21.2248 16.3216 21.117 16.4073 21.0342 16.5147C20.9515 16.6222 20.8962 16.7482 20.8732 16.8819C20.8503 17.0139 20.8595 17.1495 20.9001 17.2771C20.9407 17.4048 21.0115 17.5208 21.1065 17.6153L24.7315 21.2319L23.2315 22.7319L19.6148 19.1069C19.5196 19.0134 19.4032 18.9442 19.2756 18.905C19.148 18.8659 19.0128 18.858 18.8815 18.8819C18.7487 18.9041 18.6232 18.9581 18.5158 19.0394C18.4084 19.1207 18.3223 19.2268 18.2648 19.3486C17.8094 20.3257 17.6086 21.4021 17.6809 22.4777C17.7533 23.5532 18.0965 24.593 18.6786 25.5003C19.2607 26.4076 20.0629 27.153 21.0105 27.667C21.958 28.181 23.0202 28.447 24.0982 28.4403C24.49 28.4415 24.881 28.4024 25.2648 28.3236L29.0232 32.0903C29.1006 32.1684 29.1928 32.2304 29.2944 32.2727C29.3959 32.315 29.5048 32.3368 29.6148 32.3368C29.7248 32.3368 29.8338 32.315 29.9353 32.2727C30.0369 32.2304 30.129 32.1684 30.2065 32.0903C30.2846 32.0128 30.3466 31.9206 30.3889 31.8191C30.4312 31.7175 30.453 31.6086 30.453 31.4986C30.453 31.3886 30.4312 31.2797 30.3889 31.1781C30.3466 31.0766 30.2846 30.9844 30.2065 30.9069L26.1232 26.8236C26.0211 26.7222 25.8946 26.649 25.7559 26.611C25.6171 26.5731 25.4709 26.5717 25.3315 26.6069C24.9291 26.7147 24.5147 26.7707 24.0982 26.7736C23.4749 26.7791 22.8567 26.6612 22.2791 26.4267C21.7016 26.1923 21.1761 25.8459 20.7331 25.4074C20.29 24.969 19.9381 24.4473 19.6975 23.8722C19.457 23.2972 19.3326 22.6803 19.3315 22.0569C19.3304 21.7778 19.3527 21.499 19.3982 21.2236L22.6648 24.4986C22.7423 24.5767 22.8345 24.6387 22.936 24.681C23.0376 24.7233 23.1465 24.7451 23.2565 24.7451C23.3665 24.7451 23.4754 24.7233 23.577 24.681C23.6785 24.6387 23.7707 24.5767 23.8482 24.4986L26.4982 21.8236C26.6484 21.6682 26.7323 21.4605 26.7323 21.2444C26.7323 21.0283 26.6484 20.8207 26.4982 20.6653L23.2565 17.3986C23.532 17.3536 23.8107 17.3313 24.0898 17.3319C25.3415 17.3341 26.5412 17.8329 27.4255 18.7188C28.3098 19.6047 28.8065 20.8052 28.8065 22.0569C28.8036 22.4735 28.7476 22.8879 28.6398 23.2903C28.6046 23.4297 28.606 23.5759 28.6439 23.7146C28.6819 23.8534 28.7551 23.9799 28.8565 24.0819L32.9398 28.1653C33.0968 28.3222 33.3096 28.4103 33.5315 28.4103C33.7534 28.4103 33.9663 28.3222 34.1232 28.1653C34.2801 28.0083 34.3682 27.7955 34.3682 27.5736C34.3682 27.3517 34.2801 27.1389 34.1232 26.9819H34.0898Z" fill="#72767C"/>
</g>
<defs>
<filter id="filter0_d_623_2120" x="0" y="0" width="52" height="52" filterUnits="userSpaceOnUse" color-interpolation-filters="sRGB">
<feFlood flood-opacity="0" result="BackgroundImageFix"/>
<feColorMatrix in="SourceAlpha" type="matrix" values="0 0 0 0 0 0 0 0 0 0 0 0 0 0 0 0 0 0 127 0" result="hardAlpha"/>
<feOffset dy="2"/>
<feGaussianBlur stdDeviation="2"/>
<feComposite in2="hardAlpha" operator="out"/>
<feColorMatrix type="matrix" values="0 0 0 0 0.575 0 0 0 0 0.563021 0 0 0 0 0.563021 0 0 0 0.2 0"/>
<feBlend mode="normal" in2="BackgroundImageFix" result="effect1_dropShadow_623_2120"/>
<feBlend mode="normal" in="SourceGraphic" in2="effect1_dropShadow_623_2120" result="shape"/>
</filter>
</defs>
</svg>
