<svg width="52" height="52" viewBox="0 0 52 52" fill="none" xmlns="http://www.w3.org/2000/svg">
<g filter="url(#filter0_d_623_2109)">
<rect x="4" y="2" width="44" height="44" rx="22" fill="white" shape-rendering="crispEdges"/>
<path d="M25.9998 19.8337C25.7788 19.8337 25.5669 19.9215 25.4106 20.0777C25.2543 20.234 25.1665 20.446 25.1665 20.667V24.0003C25.1665 24.2213 25.2543 24.4333 25.4106 24.5896C25.5669 24.7459 25.7788 24.8337 25.9998 24.8337C26.2209 24.8337 26.4328 24.7459 26.5891 24.5896C26.7454 24.4333 26.8332 24.2213 26.8332 24.0003V20.667C26.8332 20.446 26.7454 20.234 26.5891 20.0777C26.4328 19.9215 26.2209 19.8337 25.9998 19.8337ZM26.7665 27.017C26.7483 26.9639 26.723 26.9134 26.6915 26.867L26.5915 26.742C26.4743 26.6264 26.3255 26.548 26.1639 26.5169C26.0022 26.4857 25.8349 26.5032 25.6832 26.567C25.5822 26.6092 25.4892 26.6684 25.4082 26.742C25.3309 26.8199 25.2698 26.9122 25.2284 27.0137C25.1869 27.1153 25.1659 27.224 25.1665 27.3337C25.1678 27.4426 25.1905 27.5501 25.2332 27.6503C25.2706 27.7537 25.3303 27.8477 25.4081 27.9254C25.4858 28.0032 25.5798 28.0629 25.6832 28.1003C25.7829 28.1444 25.8908 28.1672 25.9998 28.1672C26.1089 28.1672 26.2168 28.1444 26.3165 28.1003C26.4199 28.0629 26.5138 28.0032 26.5916 27.9254C26.6694 27.8477 26.7291 27.7537 26.7665 27.6503C26.8092 27.5501 26.8319 27.4426 26.8332 27.3337C26.8373 27.2782 26.8373 27.2225 26.8332 27.167C26.8188 27.1139 26.7963 27.0633 26.7665 27.017ZM25.9998 15.667C24.3517 15.667 22.7405 16.1557 21.3701 17.0714C19.9997 17.9871 18.9316 19.2886 18.3008 20.8113C17.6701 22.334 17.5051 24.0096 17.8266 25.6261C18.1482 27.2426 18.9418 28.7274 20.1073 29.8929C21.2727 31.0583 22.7576 31.852 24.3741 32.1735C25.9906 32.4951 27.6662 32.3301 29.1889 31.6993C30.7116 31.0686 32.0131 30.0005 32.9288 28.6301C33.8444 27.2597 34.3332 25.6485 34.3332 24.0003C34.3332 22.906 34.1176 21.8223 33.6988 20.8113C33.28 19.8003 32.6662 18.8816 31.8924 18.1078C31.1186 17.3339 30.1999 16.7201 29.1889 16.3013C28.1778 15.8825 27.0942 15.667 25.9998 15.667ZM25.9998 30.667C24.6813 30.667 23.3924 30.276 22.296 29.5435C21.1997 28.8109 20.3452 27.7697 19.8406 26.5515C19.3361 25.3334 19.204 23.9929 19.4613 22.6997C19.7185 21.4065 20.3534 20.2186 21.2858 19.2863C22.2181 18.3539 23.406 17.719 24.6992 17.4618C25.9924 17.2045 27.3329 17.3365 28.5511 17.8411C29.7692 18.3457 30.8104 19.2002 31.543 20.2965C32.2755 21.3929 32.6665 22.6818 32.6665 24.0003C32.6665 25.7684 31.9641 27.4641 30.7139 28.7144C29.4636 29.9646 27.768 30.667 25.9998 30.667Z" fill="#FF5A5A"/>
</g>
<defs>
<filter id="filter0_d_623_2109" x="0" y="0" width="52" height="52" filterUnits="userSpaceOnUse" color-interpolation-filters="sRGB">
<feFlood flood-opacity="0" result="BackgroundImageFix"/>
<feColorMatrix in="SourceAlpha" type="matrix" values="0 0 0 0 0 0 0 0 0 0 0 0 0 0 0 0 0 0 127 0" result="hardAlpha"/>
<feOffset dy="2"/>
<feGaussianBlur stdDeviation="2"/>
<feComposite in2="hardAlpha" operator="out"/>
<feColorMatrix type="matrix" values="0 0 0 0 0.575 0 0 0 0 0.563021 0 0 0 0 0.563021 0 0 0 0.2 0"/>
<feBlend mode="normal" in2="BackgroundImageFix" result="effect1_dropShadow_623_2109"/>
<feBlend mode="normal" in="SourceGraphic" in2="effect1_dropShadow_623_2109" result="shape"/>
</filter>
</defs>
</svg>
